<svg width="0" height="0" class="hidden">
  <symbol id='upload-cloud-icon' width="24" height="24" viewBox="0 0 24 24" fill="none" xmlns="http://www.w3.org/2000/svg">
    <path d="M4 16.2422C2.79401 15.435 2 14.0602 2 12.5C2 10.1564 3.79151 8.23129 6.07974 8.01937C6.54781 5.17213 9.02024 3 12 3C14.9798 3 17.4522 5.17213 17.9203 8.01937C20.2085 8.23129 22 10.1564 22 12.5C22 14.0602 21.206 15.435 20 16.2422M8 16L12 12M12 12L16 16M12 12V21" stroke="currentColor" stroke-width="2" stroke-linecap="round" stroke-linejoin="round"/>
  </symbol>

  <symbol id="plus-square-icon" width="24" height="24" viewBox="0 0 24 24" fill="none" xmlns="http://www.w3.org/2000/svg">
    <path d="M12 8V16M8 12H16M7.8 21H16.2C17.8802 21 18.7202 21 19.362 20.673C19.9265 20.3854 20.3854 19.9265 20.673 19.362C21 18.7202 21 17.8802 21 16.2V7.8C21 6.11984 21 5.27976 20.673 4.63803C20.3854 4.07354 19.9265 3.6146 19.362 3.32698C18.7202 3 17.8802 3 16.2 3H7.8C6.11984 3 5.27976 3 4.63803 3.32698C4.07354 3.6146 3.6146 4.07354 3.32698 4.63803C3 5.27976 3 6.11984 3 7.8V16.2C3 17.8802 3 18.7202 3.32698 19.362C3.6146 19.9265 4.07354 20.3854 4.63803 20.673C5.27976 21 6.11984 21 7.8 21Z" stroke="currentColor" stroke-width="2" stroke-linecap="round" stroke-linejoin="round"/>
  </symbol>

  <symbol id="x-close-icon" width="24" height="24" viewBox="0 0 24 24" fill="none" xmlns="http://www.w3.org/2000/svg">
    <path d="M18 6L6 18M6 6L18 18" stroke="currentColor" stroke-width="2" stroke-linecap="round" stroke-linejoin="round"/>
  </symbol>

  <symbol id="seacrh-lg-icon" width="24" height="24" viewBox="0 0 24 24" fill="none" xmlns="http://www.w3.org/2000/svg">
    <path d="M21 21L17.5001 17.5M20 11.5C20 16.1944 16.1944 20 11.5 20C6.80558 20 3 16.1944 3 11.5C3 6.80558 6.80558 3 11.5 3C16.1944 3 20 6.80558 20 11.5Z" stroke="currentColor" stroke-width="2" stroke-linecap="round" stroke-linejoin="round"/>
  </symbol>

  <symbol id="settings-icon" width="24" height="24" viewBox="0 0 24 24" fill="none" xmlns="http://www.w3.org/2000/svg">
    <path d="M9.3951 19.3711L9.97955 20.6856C10.1533 21.0768 10.4368 21.4093 10.7958 21.6426C11.1547 21.8759 11.5737 22.0001 12.0018 22C12.4299 22.0001 12.8488 21.8759 13.2078 21.6426C13.5667 21.4093 13.8503 21.0768 14.024 20.6856L14.6084 19.3711C14.8165 18.9047 15.1664 18.5159 15.6084 18.26C16.0532 18.0034 16.5678 17.8941 17.0784 17.9478L18.5084 18.1C18.9341 18.145 19.3637 18.0656 19.7451 17.8713C20.1265 17.6771 20.4434 17.3763 20.6573 17.0056C20.8715 16.635 20.9735 16.2103 20.9511 15.7829C20.9286 15.3555 20.7825 14.9438 20.5307 14.5978L19.684 13.4344C19.3825 13.0171 19.2214 12.5148 19.224 12C19.2239 11.4866 19.3865 10.9864 19.6884 10.5711L20.5351 9.40778C20.787 9.06175 20.933 8.65007 20.9555 8.22267C20.978 7.79528 20.8759 7.37054 20.6618 7C20.4479 6.62923 20.131 6.32849 19.7496 6.13423C19.3681 5.93997 18.9386 5.86053 18.5129 5.90556L17.0829 6.05778C16.5722 6.11141 16.0577 6.00212 15.6129 5.74556C15.17 5.48825 14.82 5.09736 14.6129 4.62889L14.024 3.31444C13.8503 2.92317 13.5667 2.59072 13.2078 2.3574C12.8488 2.12408 12.4299 1.99993 12.0018 2C11.5737 1.99993 11.1547 2.12408 10.7958 2.3574C10.4368 2.59072 10.1533 2.92317 9.97955 3.31444L9.3951 4.62889C9.18803 5.09736 8.83798 5.48825 8.3951 5.74556C7.95032 6.00212 7.43577 6.11141 6.9251 6.05778L5.49066 5.90556C5.06499 5.86053 4.6354 5.93997 4.25397 6.13423C3.87255 6.32849 3.55567 6.62923 3.34177 7C3.12759 7.37054 3.02555 7.79528 3.04804 8.22267C3.07052 8.65007 3.21656 9.06175 3.46844 9.40778L4.3151 10.5711C4.61704 10.9864 4.77964 11.4866 4.77955 12C4.77964 12.5134 4.61704 13.0137 4.3151 13.4289L3.46844 14.5922C3.21656 14.9382 3.07052 15.3499 3.04804 15.7773C3.02555 16.2047 3.12759 16.6295 3.34177 17C3.55589 17.3706 3.8728 17.6712 4.25417 17.8654C4.63554 18.0596 5.06502 18.1392 5.49066 18.0944L6.92066 17.9422C7.43133 17.8886 7.94587 17.9979 8.39066 18.2544C8.83519 18.511 9.18687 18.902 9.3951 19.3711Z" stroke="currentColor" stroke-width="2" stroke-linecap="round" stroke-linejoin="round"/>
    <path d="M12 15C13.6568 15 15 13.6569 15 12C15 10.3431 13.6568 9 12 9C10.3431 9 8.99998 10.3431 8.99998 12C8.99998 13.6569 10.3431 15 12 15Z" stroke="currentColor" stroke-width="2" stroke-linecap="round" stroke-linejoin="round"/>
  </symbol>

  <symbol id="plus-icon" width="24" height="24" viewBox="0 0 24 24" fill="none" xmlns="http://www.w3.org/2000/svg">
    <path d="M12 5V19M5 12H19" stroke="currentColor" stroke-width="2" stroke-linecap="round" stroke-linejoin="round"/>
  </symbol>

  <symbol id="plus-circle-icon" width="24" height="24" viewBox="0 0 24 24" fill="none" xmlns="http://www.w3.org/2000/svg">
    <path d="M12 8V16M8 12H16M22 12C22 17.5228 17.5228 22 12 22C6.47715 22 2 17.5228 2 12C2 6.47715 6.47715 2 12 2C17.5228 2 22 6.47715 22 12Z" stroke="currentColor" stroke-width="2" stroke-linecap="round" stroke-linejoin="round"/>
  </symbol>

  <symbol id="logout-icon" width="24" height="24" viewBox="0 0 24 24" fill="none" xmlns="http://www.w3.org/2000/svg">
    <path d="M16 17L21 12M21 12L16 7M21 12H9M9 3H7.8C6.11984 3 5.27976 3 4.63803 3.32698C4.07354 3.6146 3.6146 4.07354 3.32698 4.63803C3 5.27976 3 6.11984 3 7.8V16.2C3 17.8802 3 18.7202 3.32698 19.362C3.6146 19.9265 4.07354 20.3854 4.63803 20.673C5.27976 21 6.11984 21 7.8 21H9" stroke="currentColor" stroke-width="2" stroke-linecap="round" stroke-linejoin="round"/>
  </symbol>

  <symbol id="dots-vertical-icon" width="24" height="24" viewBox="0 0 24 24" fill="none" xmlns="http://www.w3.org/2000/svg">
    <path d="M12 13C12.5523 13 13 12.5523 13 12C13 11.4477 12.5523 11 12 11C11.4477 11 11 11.4477 11 12C11 12.5523 11.4477 13 12 13Z" stroke="currentColor" stroke-width="2" stroke-linecap="round" stroke-linejoin="round"/>
    <path d="M12 6C12.5523 6 13 5.55228 13 5C13 4.44772 12.5523 4 12 4C11.4477 4 11 4.44772 11 5C11 5.55228 11.4477 6 12 6Z" stroke="currentColor" stroke-width="2" stroke-linecap="round" stroke-linejoin="round"/>
    <path d="M12 20C12.5523 20 13 19.5523 13 19C13 18.4477 12.5523 18 12 18C11.4477 18 11 18.4477 11 19C11 19.5523 11.4477 20 12 20Z" stroke="currentColor" stroke-width="2" stroke-linecap="round" stroke-linejoin="round"/>
  </symbol>


  <symbol id="clock-icon" width="24" height="24" viewBox="0 0 24 24" fill="none" xmlns="http://www.w3.org/2000/svg">
    <path d="M12 6V12L16 14M22 12C22 17.5228 17.5228 22 12 22C6.47715 22 2 17.5228 2 12C2 6.47715 6.47715 2 12 2C17.5228 2 22 6.47715 22 12Z" stroke="currentColor" stroke-width="2" stroke-linecap="round" stroke-linejoin="round"/>
  </symbol>

  <symbol id="attachment-icon" width="24" height="24" viewBox="0 0 24 24" fill="none" xmlns="http://www.w3.org/2000/svg">
    <path d="M17.5 5.25581V16.5C17.5 19.5376 15.0376 22 12 22C8.96243 22 6.5 19.5376 6.5 16.5V5.66667C6.5 3.64162 8.14162 2 10.1667 2C12.1917 2 13.8333 3.64162 13.8333 5.66667V16.4457C13.8333 17.4583 13.0125 18.2791 12 18.2791C10.9875 18.2791 10.1667 17.4583 10.1667 16.4457V6.65116" stroke="currentColor" stroke-width="2" stroke-linecap="round" stroke-linejoin="round"/>
  </symbol>

  <symbol width="24" id="menu-icon" height="24" viewBox="0 0 24 24" fill="none" xmlns="http://www.w3.org/2000/svg">
    <path d="M3 12H15M3 6H21M3 18H21" stroke="currentColor" stroke-width="2" stroke-linecap="round" stroke-linejoin="round"/>
  </symbol>



</svg>
