<svg width="0" height="0"><symbol xmlns="http://www.w3.org/2000/svg" id="arrow-left" fill="none" viewBox="0 0 24 24"><path id="Icon" stroke="currentColor" stroke-linecap="round" stroke-linejoin="round" stroke-width="2" d="M19 12H5m0 0 7 7m-7-7 7-7"/></symbol><symbol xmlns="http://www.w3.org/2000/svg" id="attachment" fill="none" viewBox="0 0 24 24"><path id="attachment-02" stroke="currentColor" stroke-linecap="round" stroke-linejoin="round" stroke-width="2" d="M17.5 5.256V16.5a5.5 5.5 0 1 1-11 0V5.667a3.667 3.667 0 0 1 7.333 0v10.779a1.833 1.833 0 1 1-3.666 0V6.65"/></symbol><symbol xmlns="http://www.w3.org/2000/svg" id="clock" fill="none" viewBox="0 0 24 24"><path stroke="currentColor" stroke-linecap="round" stroke-linejoin="round" stroke-width="2" d="M12 6v6l4 2m6-2c0 5.523-4.477 10-10 10S2 17.523 2 12 6.477 2 12 2s10 4.477 10 10Z"/></symbol><symbol xmlns="http://www.w3.org/2000/svg" id="dots-vertical" fill="none" viewBox="0 0 24 24"><path stroke="currentColor" stroke-linecap="round" stroke-linejoin="round" stroke-width="2" d="M12 13a1 1 0 1 0 0-2 1 1 0 0 0 0 2Zm0-7a1 1 0 1 0 0-2 1 1 0 0 0 0 2Zm0 14a1 1 0 1 0 0-2 1 1 0 0 0 0 2Z"/></symbol><symbol xmlns="http://www.w3.org/2000/svg" id="folder-shield" fill="none" viewBox="0 0 24 24"><path stroke="currentColor" stroke-linecap="round" stroke-linejoin="round" stroke-width="2" d="m13 7-1.116-2.231c-.32-.642-.481-.963-.72-1.198a2 2 0 0 0-.748-.462C10.1 3 9.74 3 9.022 3H5.2c-1.12 0-1.68 0-2.108.218a2 2 0 0 0-.874.874C2 4.52 2 5.08 2 6.2V7m0 0h15.2c1.68 0 2.52 0 3.162.327a3 3 0 0 1 1.311 1.311C22 9.28 22 10.12 22 11.8v4.4c0 1.68 0 2.52-.327 3.162a3 3 0 0 1-1.311 1.311C19.72 21 18.88 21 17.2 21H6.8c-1.68 0-2.52 0-3.162-.327a3 3 0 0 1-1.311-1.311C2 18.72 2 17.88 2 16.2V7Zm10 10.5s3-1.43 3-3.575v-2.502l-2.188-.782a2.41 2.41 0 0 0-1.626 0L9 11.423v2.502c0 2.145 3 3.575 3 3.575Z"/></symbol><symbol xmlns="http://www.w3.org/2000/svg" id="help-circle" fill="none" viewBox="0 0 24 24"><path stroke="currentColor" stroke-linecap="round" stroke-linejoin="round" stroke-width="2" d="M9.09 9a3 3 0 0 1 5.83 1c0 2-3 3-3 3m.08 4h.01M22 12c0 5.523-4.477 10-10 10S2 17.523 2 12 6.477 2 12 2s10 4.477 10 10Z"/></symbol><symbol xmlns="http://www.w3.org/2000/svg" id="home-line" fill="none" viewBox="0 0 24 24"><path stroke="currentColor" stroke-linecap="round" stroke-linejoin="round" stroke-width="2" d="M8 17h8M11.018 2.764 4.235 8.039c-.453.353-.68.53-.843.75a2 2 0 0 0-.318.65C3 9.704 3 9.991 3 10.565V17.8c0 1.12 0 1.68.218 2.108a2 2 0 0 0 .874.874C4.52 21 5.08 21 6.2 21h11.6c1.12 0 1.68 0 2.108-.218a2 2 0 0 0 .874-.874C21 19.48 21 18.92 21 17.8v-7.235c0-.574 0-.861-.074-1.126a2.002 2.002 0 0 0-.318-.65c-.163-.22-.39-.397-.843-.75l-6.783-5.275c-.351-.273-.527-.41-.72-.462a1 1 0 0 0-.523 0c-.194.052-.37.189-.721.462Z"/></symbol><symbol xmlns="http://www.w3.org/2000/svg" id="layers-two" fill="none" viewBox="0 0 24 24"><path id="layers-two-01" stroke="currentColor" stroke-linecap="round" stroke-linejoin="round" stroke-width="2" d="m2 14.5 9.642 4.821c.131.066.197.099.266.111.06.012.123.012.184 0 .069-.012.135-.045.266-.11L22 14.5m-20-5 9.642-4.821c.131-.066.197-.098.266-.111a.5.5 0 0 1 .184 0c.069.013.135.045.266.111L22 9.5l-9.642 4.821a1.028 1.028 0 0 1-.266.111.501.501 0 0 1-.184 0c-.069-.012-.135-.045-.266-.11L2 9.5Z"/></symbol><symbol xmlns="http://www.w3.org/2000/svg" id="loading-02" fill="none" viewBox="0 0 21 20"><path stroke="currentColor" stroke-linecap="round" stroke-linejoin="round" stroke-width="2" d="M10.5 1.667V5m0 10v3.333M5.5 10H2.167m16.666 0H15.5m.899 5.899-2.357-2.357m2.357-9.375-2.357 2.357m-9.44 9.375 2.356-2.357M4.601 4.167l2.357 2.357"/></symbol><symbol xmlns="http://www.w3.org/2000/svg" id="log-out" fill="none" viewBox="0 0 24 24"><path id="log-out-01" stroke="currentColor" stroke-linecap="round" stroke-linejoin="round" stroke-width="2" d="m16 17 5-5m0 0-5-5m5 5H9m0-9H7.8c-1.68 0-2.52 0-3.162.327a3 3 0 0 0-1.311 1.311C3 5.28 3 6.12 3 7.8v8.4c0 1.68 0 2.52.327 3.162a3 3 0 0 0 1.311 1.311C5.28 21 6.12 21 7.8 21H9"/></symbol><symbol xmlns="http://www.w3.org/2000/svg" id="mail" fill="none" viewBox="0 0 24 24"><path id="mail-01" stroke="currentColor" stroke-linecap="round" stroke-linejoin="round" stroke-width="2" d="m2 7 8.165 5.715c.661.463.992.695 1.351.784a2 2 0 0 0 .968 0c.36-.09.69-.32 1.351-.784L22 7M6.8 20h10.4c1.68 0 2.52 0 3.162-.327a3 3 0 0 0 1.311-1.311C22 17.72 22 16.88 22 15.2V8.8c0-1.68 0-2.52-.327-3.162a3 3 0 0 0-1.311-1.311C19.72 4 18.88 4 17.2 4H6.8c-1.68 0-2.52 0-3.162.327a3 3 0 0 0-1.311 1.311C2 6.28 2 7.12 2 8.8v6.4c0 1.68 0 2.52.327 3.162a3 3 0 0 0 1.311 1.311C4.28 20 5.12 20 6.8 20Z"/></symbol><symbol xmlns="http://www.w3.org/2000/svg" id="menu" fill="none" viewBox="0 0 24 24"><path id="menu-02" stroke="currentColor" stroke-linecap="round" stroke-linejoin="round" stroke-width="2" d="M3 12h12M3 6h18M3 18h18"/></symbol><symbol xmlns="http://www.w3.org/2000/svg" id="plus-circle" fill="none" viewBox="0 0 24 24"><path stroke="currentColor" stroke-linecap="round" stroke-linejoin="round" stroke-width="2" d="M12 8v8m-4-4h8m6 0c0 5.523-4.477 10-10 10S2 17.523 2 12 6.477 2 12 2s10 4.477 10 10Z"/></symbol><symbol xmlns="http://www.w3.org/2000/svg" id="plus-square" fill="none" viewBox="0 0 24 24"><path stroke="currentColor" stroke-linecap="round" stroke-linejoin="round" stroke-width="2" d="M12 8v8m-4-4h8m-8.2 9h8.4c1.68 0 2.52 0 3.162-.327a3 3 0 0 0 1.311-1.311C21 18.72 21 17.88 21 16.2V7.8c0-1.68 0-2.52-.327-3.162a3 3 0 0 0-1.311-1.311C18.72 3 17.88 3 16.2 3H7.8c-1.68 0-2.52 0-3.162.327a3 3 0 0 0-1.311 1.311C3 5.28 3 6.12 3 7.8v8.4c0 1.68 0 2.52.327 3.162a3 3 0 0 0 1.311 1.311C5.28 21 6.12 21 7.8 21Z"/></symbol><symbol xmlns="http://www.w3.org/2000/svg" id="plus" fill="none" viewBox="0 0 24 24"><path stroke="currentColor" stroke-linecap="round" stroke-linejoin="round" stroke-width="2" d="M12 5v14m-7-7h14"/></symbol><symbol xmlns="http://www.w3.org/2000/svg" id="search-lg" fill="none" viewBox="0 0 24 24"><path stroke="currentColor" stroke-linecap="round" stroke-linejoin="round" stroke-width="2" d="m21 21-3.5-3.5m2.5-6a8.5 8.5 0 1 1-17 0 8.5 8.5 0 0 1 17 0Z"/></symbol><symbol xmlns="http://www.w3.org/2000/svg" id="search-sm" fill="none" viewBox="0 0 24 24"><path stroke="currentColor" stroke-linecap="round" stroke-linejoin="round" stroke-width="2" d="m21 21-6-6m2-5a7 7 0 1 1-14 0 7 7 0 0 1 14 0Z"/></symbol><symbol xmlns="http://www.w3.org/2000/svg" id="search" fill="none" viewBox="0 0 24 24"><path stroke="currentColor" stroke-linecap="round" stroke-linejoin="round" stroke-width="2" d="m21 21-6-6m2-5a7 7 0 1 1-14 0 7 7 0 0 1 14 0Z"/></symbol><symbol xmlns="http://www.w3.org/2000/svg" id="settings-01" fill="none" viewBox="0 0 24 24"><g stroke="currentColor" stroke-linecap="round" stroke-linejoin="round" stroke-width="2"><path d="M12 15a3 3 0 1 0 0-6 3 3 0 0 0 0 6Z"/><path d="M18.727 14.727a1.5 1.5 0 0 0 .3 1.655l.055.054a1.816 1.816 0 0 1 0 2.573 1.818 1.818 0 0 1-2.573 0l-.055-.055a1.5 1.5 0 0 0-1.654-.3 1.5 1.5 0 0 0-.91 1.373v.155a1.818 1.818 0 1 1-3.636 0V20.1a1.5 1.5 0 0 0-.981-1.373 1.5 1.5 0 0 0-1.655.3l-.054.055a1.818 1.818 0 0 1-3.106-1.287 1.818 1.818 0 0 1 .533-1.286l.054-.055a1.5 1.5 0 0 0 .3-1.654 1.5 1.5 0 0 0-1.372-.91h-.155a1.818 1.818 0 1 1 0-3.636H3.9a1.5 1.5 0 0 0 1.373-.981 1.5 1.5 0 0 0-.3-1.655l-.055-.054A1.818 1.818 0 1 1 7.491 4.99l.054.054a1.5 1.5 0 0 0 1.655.3h.073a1.5 1.5 0 0 0 .909-1.372v-.155a1.818 1.818 0 0 1 3.636 0V3.9a1.499 1.499 0 0 0 .91 1.373 1.5 1.5 0 0 0 1.654-.3l.054-.055a1.817 1.817 0 0 1 2.573 0 1.819 1.819 0 0 1 0 2.573l-.055.054a1.5 1.5 0 0 0-.3 1.655v.073a1.5 1.5 0 0 0 1.373.909h.155a1.818 1.818 0 0 1 0 3.636H20.1a1.499 1.499 0 0 0-1.373.91Z"/></g></symbol><symbol xmlns="http://www.w3.org/2000/svg" id="settings" fill="none" viewBox="0 0 24 24"><g id="settings-02" stroke="currentColor" stroke-linecap="round" stroke-linejoin="round" stroke-width="2"><path d="m9.395 19.371.585 1.315a2.212 2.212 0 0 0 4.044 0l.584-1.315a2.426 2.426 0 0 1 2.47-1.423l1.43.152a2.212 2.212 0 0 0 2.023-3.502l-.847-1.164a2.428 2.428 0 0 1-.46-1.434c0-.513.163-1.014.464-1.429l.847-1.163a2.211 2.211 0 0 0-2.022-3.502l-1.43.152a2.433 2.433 0 0 1-1.47-.312 2.426 2.426 0 0 1-1-1.117l-.589-1.315a2.212 2.212 0 0 0-4.044 0L9.395 4.63c-.207.468-.557.86-1 1.117-.445.256-.96.365-1.47.312l-1.434-.152a2.212 2.212 0 0 0-2.023 3.502l.847 1.163a2.43 2.43 0 0 1 0 2.858l-.847 1.163a2.21 2.21 0 0 0 .786 3.273c.382.195.811.274 1.237.23l1.43-.153a2.434 2.434 0 0 1 2.474 1.43Z"/><path d="M12 15a3 3 0 1 0 0-6 3 3 0 0 0 0 6Z"/></g></symbol><symbol xmlns="http://www.w3.org/2000/svg" id="trash-01" fill="none" viewBox="0 0 20 20"><path stroke="currentColor" stroke-linecap="round" stroke-linejoin="round" stroke-width="1.667" d="M13.333 5v-.667c0-.933 0-1.4-.181-1.756a1.667 1.667 0 0 0-.729-.729c-.356-.181-.823-.181-1.756-.181H9.333c-.933 0-1.4 0-1.756.181-.314.16-.569.415-.729.729-.181.356-.181.823-.181 1.756V5m1.666 4.583v4.167m3.334-4.167v4.167M2.5 5h15m-1.667 0v9.333c0 1.4 0 2.1-.272 2.635a2.5 2.5 0 0 1-1.093 1.093c-.534.272-1.235.272-2.635.272H8.167c-1.4 0-2.1 0-2.635-.272a2.5 2.5 0 0 1-1.093-1.093c-.272-.535-.272-1.235-.272-2.635V5"/></symbol><symbol xmlns="http://www.w3.org/2000/svg" id="upload-cloud" fill="none" viewBox="0 0 24 24"><path id="upload-cloud-01" stroke="currentColor" stroke-linecap="round" stroke-linejoin="round" stroke-width="2" d="M4 16.242A4.5 4.5 0 0 1 6.08 8.02a6.002 6.002 0 0 1 11.84 0A4.5 4.5 0 0 1 20 16.242M8 16l4-4m0 0 4 4m-4-4v9"/></symbol><symbol xmlns="http://www.w3.org/2000/svg" id="user-circle" fill="none" viewBox="0 0 24 24"><path stroke="currentColor" stroke-linecap="round" stroke-linejoin="round" stroke-width="2" d="M5.316 19.438A4.001 4.001 0 0 1 9 17h6a4.001 4.001 0 0 1 3.684 2.438M16 9.5a4 4 0 1 1-8 0 4 4 0 0 1 8 0Zm6 2.5c0 5.523-4.477 10-10 10S2 17.523 2 12 6.477 2 12 2s10 4.477 10 10Z"/></symbol><symbol xmlns="http://www.w3.org/2000/svg" id="user" fill="none" viewBox="0 0 24 24"><path stroke="currentColor" stroke-linecap="round" stroke-linejoin="round" stroke-width="2" d="M20 21c0-1.396 0-2.093-.172-2.661a4 4 0 0 0-2.667-2.667c-.568-.172-1.265-.172-2.661-.172h-5c-1.396 0-2.093 0-2.661.172a4 4 0 0 0-2.667 2.667C4 18.907 4 19.604 4 21M16.5 7.5a4.5 4.5 0 1 1-9 0 4.5 4.5 0 0 1 9 0Z"/></symbol><symbol xmlns="http://www.w3.org/2000/svg" id="users-plus" fill="none" viewBox="0 0 24 24"><path stroke="currentColor" stroke-linecap="round" stroke-linejoin="round" stroke-width="2" d="M19 21v-6m-3 3h6m-10-3H8c-1.864 0-2.796 0-3.53.305a4 4 0 0 0-2.166 2.164C2 18.204 2 19.136 2 21M15.5 3.29a4.001 4.001 0 0 1 0 7.42M13.5 7a4 4 0 1 1-8 0 4 4 0 0 1 8 0Z"/></symbol><symbol xmlns="http://www.w3.org/2000/svg" id="x-close" fill="none" viewBox="0 0 24 24"><path stroke="currentColor" stroke-linecap="round" stroke-linejoin="round" stroke-width="2" d="M18 6 6 18M6 6l12 12"/></symbol><symbol xmlns="http://www.w3.org/2000/svg" id="zap" fill="none" viewBox="0 0 24 24"><path stroke="currentColor" stroke-linecap="round" stroke-linejoin="round" stroke-width="2" d="M13 2 4.093 12.688c-.348.418-.523.628-.525.804a.5.5 0 0 0 .185.397c.138.111.41.111.955.111H12l-1 8 8.907-10.688c.348-.418.523-.628.525-.804a.5.5 0 0 0-.185-.397c-.138-.111-.41-.111-.955-.111H12l1-8Z"/></symbol></svg>