<svg width="0" height="0"><symbol xmlns="http://www.w3.org/2000/svg" id="arrow-left" fill="none" viewBox="0 0 24 24"><g><path id="Icon" stroke="currentColor" stroke-linecap="round" stroke-linejoin="round" stroke-width="2" d="M19 12H5m0 0 7 7m-7-7 7-7"/></g></symbol><symbol xmlns="http://www.w3.org/2000/svg" id="attachment" fill="none" viewBox="0 0 24 24"><g id="attachment-02"><path stroke="currentColor" stroke-linecap="round" stroke-linejoin="round" stroke-width="2" d="M17.5 5.256V16.5a5.5 5.5 0 1 1-11 0V5.667a3.667 3.667 0 0 1 7.333 0v10.779a1.833 1.833 0 1 1-3.666 0V6.65"/></g></symbol><symbol xmlns="http://www.w3.org/2000/svg" id="clock" fill="none" viewBox="0 0 24 24"><g><path stroke="currentColor" stroke-linecap="round" stroke-linejoin="round" stroke-width="2" d="M12 6v6l4 2m6-2c0 5.523-4.477 10-10 10S2 17.523 2 12 6.477 2 12 2s10 4.477 10 10Z"/></g></symbol><symbol xmlns="http://www.w3.org/2000/svg" id="dots-vertical" fill="none" viewBox="0 0 24 24"><g><g stroke="currentColor" stroke-linecap="round" stroke-linejoin="round" stroke-width="2"><path d="M12 13a1 1 0 1 0 0-2 1 1 0 0 0 0 2Zm0-7a1 1 0 1 0 0-2 1 1 0 0 0 0 2Zm0 14a1 1 0 1 0 0-2 1 1 0 0 0 0 2Z"/></g></g></symbol><symbol xmlns="http://www.w3.org/2000/svg" id="folder-shield" fill="none" viewBox="0 0 24 24"><g><path stroke="currentColor" stroke-linecap="round" stroke-linejoin="round" stroke-width="2" d="m13 7-1.116-2.231c-.32-.642-.481-.963-.72-1.198a2 2 0 0 0-.748-.462C10.1 3 9.74 3 9.022 3H5.2c-1.12 0-1.68 0-2.108.218a2 2 0 0 0-.874.874C2 4.52 2 5.08 2 6.2V7m0 0h15.2c1.68 0 2.52 0 3.162.327a3 3 0 0 1 1.311 1.311C22 9.28 22 10.12 22 11.8v4.4c0 1.68 0 2.52-.327 3.162a3 3 0 0 1-1.311 1.311C19.72 21 18.88 21 17.2 21H6.8c-1.68 0-2.52 0-3.162-.327a3 3 0 0 1-1.311-1.311C2 18.72 2 17.88 2 16.2V7Zm10 10.5s3-1.43 3-3.575v-2.502l-2.188-.782a2.41 2.41 0 0 0-1.626 0L9 11.423v2.502c0 2.145 3 3.575 3 3.575Z"/></g></symbol><symbol xmlns="http://www.w3.org/2000/svg" id="layers-two" fill="none" viewBox="0 0 24 24"><g id="layers-two-01"><path stroke="currentColor" stroke-linecap="round" stroke-linejoin="round" stroke-width="2" d="m2 14.5 9.642 4.821c.131.066.197.099.266.111.06.012.123.012.184 0 .069-.012.135-.045.266-.11L22 14.5m-20-5 9.642-4.821c.131-.066.197-.098.266-.111a.5.5 0 0 1 .184 0c.069.013.135.045.266.111L22 9.5l-9.642 4.821a1.028 1.028 0 0 1-.266.111.501.501 0 0 1-.184 0c-.069-.012-.135-.045-.266-.11L2 9.5Z"/></g></symbol><symbol xmlns="http://www.w3.org/2000/svg" id="log-out" fill="none" viewBox="0 0 24 24"><g id="log-out-01"><path stroke="currentColor" stroke-linecap="round" stroke-linejoin="round" stroke-width="2" d="m16 17 5-5m0 0-5-5m5 5H9m0-9H7.8c-1.68 0-2.52 0-3.162.327a3 3 0 0 0-1.311 1.311C3 5.28 3 6.12 3 7.8v8.4c0 1.68 0 2.52.327 3.162a3 3 0 0 0 1.311 1.311C5.28 21 6.12 21 7.8 21H9"/></g></symbol><symbol xmlns="http://www.w3.org/2000/svg" id="menu" fill="none" viewBox="0 0 24 24"><g id="menu-02"><path stroke="currentColor" stroke-linecap="round" stroke-linejoin="round" stroke-width="2" d="M3 12h12M3 6h18M3 18h18"/></g></symbol><symbol xmlns="http://www.w3.org/2000/svg" id="plus-circle" fill="none" viewBox="0 0 24 24"><g><path stroke="currentColor" stroke-linecap="round" stroke-linejoin="round" stroke-width="2" d="M12 8v8m-4-4h8m6 0c0 5.523-4.477 10-10 10S2 17.523 2 12 6.477 2 12 2s10 4.477 10 10Z"/></g></symbol><symbol xmlns="http://www.w3.org/2000/svg" id="plus-square" fill="none" viewBox="0 0 24 24"><g><path stroke="currentColor" stroke-linecap="round" stroke-linejoin="round" stroke-width="2" d="M12 8v8m-4-4h8m-8.2 9h8.4c1.68 0 2.52 0 3.162-.327a3 3 0 0 0 1.311-1.311C21 18.72 21 17.88 21 16.2V7.8c0-1.68 0-2.52-.327-3.162a3 3 0 0 0-1.311-1.311C18.72 3 17.88 3 16.2 3H7.8c-1.68 0-2.52 0-3.162.327a3 3 0 0 0-1.311 1.311C3 5.28 3 6.12 3 7.8v8.4c0 1.68 0 2.52.327 3.162a3 3 0 0 0 1.311 1.311C5.28 21 6.12 21 7.8 21Z"/></g></symbol><symbol xmlns="http://www.w3.org/2000/svg" id="plus" fill="none" viewBox="0 0 24 24"><g><path stroke="currentColor" stroke-linecap="round" stroke-linejoin="round" stroke-width="2" d="M12 5v14m-7-7h14"/></g></symbol><symbol xmlns="http://www.w3.org/2000/svg" id="search-lg" fill="none" viewBox="0 0 24 24"><g><path stroke="currentColor" stroke-linecap="round" stroke-linejoin="round" stroke-width="2" d="m21 21-3.5-3.5m2.5-6a8.5 8.5 0 1 1-17 0 8.5 8.5 0 0 1 17 0Z"/></g></symbol><symbol xmlns="http://www.w3.org/2000/svg" id="search" fill="none" viewBox="0 0 24 24"><path stroke="currentColor" stroke-linecap="round" stroke-linejoin="round" stroke-width="2" d="m21 21-6-6m2-5a7 7 0 1 1-14 0 7 7 0 0 1 14 0Z"/></symbol><symbol xmlns="http://www.w3.org/2000/svg" id="settings" fill="none" viewBox="0 0 24 24"><g id="settings-02"><g stroke="currentColor" stroke-linecap="round" stroke-linejoin="round" stroke-width="2"><path d="m9.395 19.371.585 1.315a2.212 2.212 0 0 0 4.044 0l.584-1.315a2.426 2.426 0 0 1 2.47-1.423l1.43.152a2.212 2.212 0 0 0 2.023-3.502l-.847-1.164a2.428 2.428 0 0 1-.46-1.434c0-.513.163-1.014.464-1.429l.847-1.163a2.211 2.211 0 0 0-2.022-3.502l-1.43.152a2.433 2.433 0 0 1-1.47-.312 2.426 2.426 0 0 1-1-1.117l-.589-1.315a2.212 2.212 0 0 0-4.044 0L9.395 4.63c-.207.468-.557.86-1 1.117-.445.256-.96.365-1.47.312l-1.434-.152a2.212 2.212 0 0 0-2.023 3.502l.847 1.163a2.43 2.43 0 0 1 0 2.858l-.847 1.163a2.21 2.21 0 0 0 .786 3.273c.382.195.811.274 1.237.23l1.43-.153a2.434 2.434 0 0 1 2.474 1.43Z"/><path d="M12 15a3 3 0 1 0 0-6 3 3 0 0 0 0 6Z"/></g></g></symbol><symbol xmlns="http://www.w3.org/2000/svg" id="star" fill="none" viewBox="0 0 24 24"><g id="star-01"><path stroke="currentColor" stroke-linecap="round" stroke-linejoin="round" stroke-width="2" d="M11.283 3.453c.23-.467.345-.7.502-.775a.5.5 0 0 1 .43 0c.157.075.272.308.502.775l2.187 4.43c.068.138.102.207.152.26a.502.502 0 0 0 .155.114c.067.03.143.042.295.064l4.891.715c.515.075.773.113.892.238a.5.5 0 0 1 .133.41c-.023.172-.21.353-.582.716l-3.54 3.446c-.11.108-.165.162-.2.226a.5.5 0 0 0-.06.183c-.009.072.004.148.03.3l.835 4.867c.088.514.132.77.05.922a.5.5 0 0 1-.349.253c-.17.032-.4-.09-.862-.332l-4.373-2.3c-.136-.07-.204-.107-.276-.12a.498.498 0 0 0-.192 0c-.072.013-.14.05-.276.12l-4.373 2.3c-.461.243-.692.364-.862.332a.5.5 0 0 1-.348-.253c-.083-.152-.039-.409.05-.922l.834-4.867c.026-.152.039-.228.03-.3a.5.5 0 0 0-.06-.184c-.035-.063-.09-.117-.2-.225L3.16 10.4c-.373-.363-.56-.544-.582-.716a.5.5 0 0 1 .132-.41c.12-.125.377-.163.892-.238l4.891-.715c.152-.022.228-.034.295-.064a.5.5 0 0 0 .155-.113c.05-.054.084-.123.152-.26l2.187-4.43Z"/></g></symbol><symbol xmlns="http://www.w3.org/2000/svg" id="upload-cloud" fill="none" viewBox="0 0 24 24"><g id="upload-cloud-01"><path stroke="currentColor" stroke-linecap="round" stroke-linejoin="round" stroke-width="2" d="M4 16.242A4.5 4.5 0 0 1 6.08 8.02a6.002 6.002 0 0 1 11.84 0A4.5 4.5 0 0 1 20 16.242M8 16l4-4m0 0 4 4m-4-4v9"/></g></symbol><symbol xmlns="http://www.w3.org/2000/svg" id="x-close" fill="none" viewBox="0 0 24 24"><g><path stroke="currentColor" stroke-linecap="round" stroke-linejoin="round" stroke-width="2" d="M18 6 6 18M6 6l12 12"/></g></symbol></svg>