<svg width="0" height="0"><symbol xmlns="http://www.w3.org/2000/svg" id="apple-brand" fill="none" viewBox="0 0 24 24"><path fill="#fff" d="M20.843 17.145a11.957 11.957 0 0 1-1.183 2.127c-.622.886-1.131 1.5-1.524 1.841-.608.56-1.26.846-1.958.862-.5 0-1.105-.142-1.809-.432-.705-.287-1.354-.43-1.947-.43-.622 0-1.289.143-2.003.43-.714.29-1.29.44-1.73.455-.67.029-1.336-.266-2.002-.885-.425-.37-.957-1.006-1.594-1.907-.683-.961-1.245-2.076-1.685-3.347-.472-1.373-.708-2.703-.708-3.99 0-1.474.319-2.746.957-3.811A5.612 5.612 0 0 1 5.66 6.03a5.39 5.39 0 0 1 2.708-.764c.532 0 1.23.164 2.096.487.864.325 1.418.489 1.662.489.181 0 .798-.192 1.842-.576.988-.355 1.822-.502 2.505-.444 1.851.149 3.242.879 4.166 2.193-1.655 1.003-2.474 2.408-2.457 4.21.015 1.404.524 2.572 1.525 3.5.453.43.96.763 1.523 1a16.43 16.43 0 0 1-.388 1.019ZM16.598.44c0 1.1-.402 2.128-1.203 3.079-.967 1.13-2.137 1.783-3.405 1.68a3.417 3.417 0 0 1-.026-.417c0-1.056.46-2.186 1.277-3.11A4.91 4.91 0 0 1 14.796.504c.627-.306 1.22-.475 1.779-.504.016.147.023.294.023.44Z"/></symbol><symbol xmlns="http://www.w3.org/2000/svg" id="apple-color" fill="none" viewBox="0 0 24 24"><path fill="#98A2B3" d="M20.843 17.145a11.957 11.957 0 0 1-1.183 2.127c-.622.886-1.131 1.5-1.524 1.841-.608.56-1.26.846-1.958.862-.5 0-1.105-.142-1.809-.432-.705-.287-1.354-.43-1.947-.43-.622 0-1.289.143-2.003.43-.714.29-1.29.44-1.73.455-.67.029-1.336-.266-2.002-.885-.425-.37-.957-1.006-1.594-1.907-.683-.961-1.245-2.076-1.685-3.347-.472-1.373-.708-2.703-.708-3.99 0-1.474.319-2.746.957-3.811A5.612 5.612 0 0 1 5.66 6.03a5.39 5.39 0 0 1 2.708-.764c.532 0 1.23.164 2.096.487.864.325 1.418.489 1.662.489.181 0 .798-.192 1.842-.576.988-.355 1.822-.502 2.505-.444 1.851.149 3.242.879 4.166 2.193-1.655 1.003-2.474 2.408-2.457 4.21.015 1.404.524 2.572 1.525 3.5.453.43.96.763 1.523 1a16.43 16.43 0 0 1-.388 1.019ZM16.598.44c0 1.1-.402 2.128-1.203 3.079-.967 1.13-2.137 1.783-3.405 1.68a3.417 3.417 0 0 1-.026-.417c0-1.056.46-2.186 1.277-3.11A4.91 4.91 0 0 1 14.796.504c.627-.306 1.22-.475 1.779-.504.016.147.023.294.023.44Z"/></symbol><symbol xmlns="http://www.w3.org/2000/svg" id="apple-colorWithBrand" fill="none" viewBox="0 0 24 24"><path fill="#000" d="M20.843 17.145a11.957 11.957 0 0 1-1.183 2.127c-.622.886-1.131 1.5-1.524 1.841-.608.56-1.26.846-1.958.862-.5 0-1.105-.142-1.809-.432-.705-.287-1.354-.43-1.947-.43-.622 0-1.289.143-2.003.43-.714.29-1.29.44-1.73.455-.67.029-1.336-.266-2.002-.885-.425-.37-.957-1.006-1.594-1.907-.683-.961-1.245-2.076-1.685-3.347-.472-1.373-.708-2.703-.708-3.99 0-1.474.319-2.746.957-3.811A5.612 5.612 0 0 1 5.66 6.03a5.39 5.39 0 0 1 2.708-.764c.532 0 1.23.164 2.096.487.864.325 1.418.489 1.662.489.181 0 .798-.192 1.842-.576.988-.355 1.822-.502 2.505-.444 1.851.149 3.242.879 4.166 2.193-1.655 1.003-2.474 2.408-2.457 4.21.015 1.404.524 2.572 1.525 3.5.453.43.96.763 1.523 1a16.43 16.43 0 0 1-.388 1.019ZM16.598.44c0 1.1-.402 2.128-1.203 3.079-.967 1.13-2.137 1.783-3.405 1.68a3.417 3.417 0 0 1-.026-.417c0-1.056.46-2.186 1.277-3.11A4.91 4.91 0 0 1 14.796.504c.627-.306 1.22-.475 1.779-.504.016.147.023.294.023.44Z"/></symbol><symbol xmlns="http://www.w3.org/2000/svg" id="dribbble-brand" fill="none" viewBox="0 0 24 24"><path fill="#fff" fill-rule="evenodd" d="M12 0C5.375 0 0 5.375 0 12s5.375 12 12 12c6.612 0 12-5.375 12-12S18.612 0 12 0Zm7.926 5.531a10.202 10.202 0 0 1 2.317 6.378c-.338-.065-3.722-.755-7.132-.325-.079-.17-.144-.352-.222-.534a30.53 30.53 0 0 0-.676-1.484c3.774-1.536 5.492-3.748 5.713-4.035ZM12 1.771c2.603 0 4.985.975 6.794 2.576-.182.26-1.731 2.33-5.375 3.696-1.68-3.084-3.54-5.61-3.827-6A10.424 10.424 0 0 1 12 1.77Zm-4.36.962c.273.365 2.095 2.903 3.8 5.922-4.79 1.276-9.02 1.25-9.475 1.25.664-3.176 2.812-5.818 5.675-7.172Zm-5.896 9.28v-.312c.443.013 5.414.078 10.53-1.458.299.573.572 1.158.832 1.744-.13.039-.273.078-.403.117-5.284 1.705-8.096 6.364-8.33 6.755a10.226 10.226 0 0 1-2.629-6.846ZM12 22.256a10.18 10.18 0 0 1-6.286-2.16c.182-.378 2.264-4.387 8.043-6.404.026-.013.04-.013.065-.026 1.445 3.735 2.03 6.872 2.187 7.77-1.237.534-2.59.82-4.009.82Zm5.714-1.757c-.104-.625-.651-3.618-1.992-7.302 3.215-.507 6.026.326 6.378.443-.443 2.85-2.083 5.31-4.386 6.859Z" clip-rule="evenodd"/></symbol><symbol xmlns="http://www.w3.org/2000/svg" id="dribbble-color" fill="none" viewBox="0 0 24 24"><path fill="#98A2B3" fill-rule="evenodd" d="M12 0C5.375 0 0 5.375 0 12s5.375 12 12 12c6.612 0 12-5.375 12-12S18.612 0 12 0Zm7.926 5.531a10.202 10.202 0 0 1 2.317 6.378c-.338-.065-3.722-.755-7.132-.325-.079-.17-.144-.352-.222-.534a30.53 30.53 0 0 0-.676-1.484c3.774-1.536 5.492-3.748 5.713-4.035ZM12 1.771c2.603 0 4.985.975 6.794 2.576-.182.26-1.731 2.33-5.375 3.696-1.68-3.084-3.54-5.61-3.827-6A10.424 10.424 0 0 1 12 1.77Zm-4.36.962c.273.365 2.095 2.903 3.8 5.922-4.79 1.276-9.02 1.25-9.475 1.25.664-3.176 2.812-5.818 5.675-7.172Zm-5.896 9.28v-.312c.443.013 5.414.078 10.53-1.458.299.573.572 1.158.832 1.744-.13.039-.273.078-.403.117-5.284 1.705-8.096 6.364-8.33 6.755a10.226 10.226 0 0 1-2.629-6.846ZM12 22.256a10.18 10.18 0 0 1-6.286-2.16c.182-.378 2.264-4.387 8.043-6.404.026-.013.04-.013.065-.026 1.445 3.735 2.03 6.872 2.187 7.77-1.237.534-2.59.82-4.009.82Zm5.714-1.757c-.104-.625-.651-3.618-1.992-7.302 3.215-.507 6.026.326 6.378.443-.443 2.85-2.083 5.31-4.386 6.859Z" clip-rule="evenodd"/></symbol><symbol xmlns="http://www.w3.org/2000/svg" id="dribbble-colorWithBrand" fill="none" viewBox="0 0 24 24"><path fill="#EA4C89" d="M12 23.625c6.42 0 11.625-5.205 11.625-11.625S18.42.375 12 .375.375 5.58.375 12 5.58 23.625 12 23.625Z"/><path fill="#C32361" fill-rule="evenodd" d="M12 0C5.375 0 0 5.375 0 12s5.375 12 12 12c6.612 0 12-5.375 12-12S18.612 0 12 0Zm7.926 5.531a10.202 10.202 0 0 1 2.317 6.378c-.338-.065-3.722-.755-7.132-.325-.079-.17-.144-.352-.222-.534a30.53 30.53 0 0 0-.676-1.484c3.774-1.536 5.492-3.748 5.713-4.035ZM12 1.771c2.603 0 4.985.975 6.794 2.576-.182.26-1.731 2.33-5.375 3.696-1.68-3.084-3.54-5.61-3.827-6A10.424 10.424 0 0 1 12 1.77Zm-4.36.962c.273.365 2.095 2.903 3.8 5.922-4.79 1.276-9.02 1.25-9.475 1.25.664-3.176 2.812-5.818 5.675-7.172Zm-5.896 9.28v-.312c.443.013 5.414.078 10.53-1.458.299.573.572 1.158.832 1.744-.13.039-.273.078-.403.117-5.284 1.705-8.096 6.364-8.33 6.755a10.226 10.226 0 0 1-2.629-6.846ZM12 22.256a10.18 10.18 0 0 1-6.286-2.16c.182-.378 2.264-4.387 8.043-6.404.026-.013.04-.013.065-.026 1.445 3.735 2.03 6.872 2.187 7.77-1.237.534-2.59.82-4.009.82Zm5.714-1.757c-.104-.625-.651-3.618-1.992-7.302 3.215-.507 6.026.326 6.378.443-.443 2.85-2.083 5.31-4.386 6.859Z" clip-rule="evenodd"/></symbol><symbol xmlns="http://www.w3.org/2000/svg" id="facebook-brand" fill="none" viewBox="0 0 24 24"><g clip-path="url(#a)"><path fill="#fff" d="M24 12c0-6.627-5.373-12-12-12S0 5.373 0 12c0 5.99 4.388 10.954 10.125 11.854V15.47H7.078V12h3.047V9.356c0-3.007 1.792-4.668 4.533-4.668 1.312 0 2.686.234 2.686.234v2.953H15.83c-1.491 0-1.956.925-1.956 1.875V12h3.328l-.532 3.469h-2.796v8.385C19.612 22.954 24 17.99 24 12Z"/></g><defs><clipPath id="a"><path fill="#fff" d="M0 0h24v24H0z"/></clipPath></defs></symbol><symbol xmlns="http://www.w3.org/2000/svg" id="facebook-color" fill="none" viewBox="0 0 24 24"><g clip-path="url(#a)"><path fill="#98A2B3" d="M24 12c0-6.627-5.373-12-12-12S0 5.373 0 12c0 5.99 4.388 10.954 10.125 11.854V15.47H7.078V12h3.047V9.356c0-3.007 1.792-4.668 4.533-4.668 1.312 0 2.686.234 2.686.234v2.953H15.83c-1.491 0-1.956.925-1.956 1.875V12h3.328l-.532 3.469h-2.796v8.385C19.612 22.954 24 17.99 24 12Z"/></g></symbol><symbol xmlns="http://www.w3.org/2000/svg" id="facebook-colorWithBrand" fill="none" viewBox="0 0 24 24"><g clip-path="url(#a)"><path fill="#1877F2" d="M24 12c0-6.627-5.373-12-12-12S0 5.373 0 12c0 5.99 4.388 10.954 10.125 11.854V15.47H7.078V12h3.047V9.356c0-3.007 1.792-4.668 4.533-4.668 1.312 0 2.686.234 2.686.234v2.953H15.83c-1.491 0-1.956.925-1.956 1.875V12h3.328l-.532 3.469h-2.796v8.385C19.612 22.954 24 17.99 24 12Z"/><path fill="#fff" d="M16.671 15.469 17.203 12h-3.328V9.75c0-.949.465-1.875 1.956-1.875h1.513V4.922s-1.374-.234-2.686-.234c-2.741 0-4.533 1.66-4.533 4.668V12H7.078v3.469h3.047v8.385a12.13 12.13 0 0 0 3.75 0V15.47h2.796Z"/></g></symbol><symbol xmlns="http://www.w3.org/2000/svg" id="figma-brand" fill="none" viewBox="0 0 24 24"><g clip-path="url(#a)"><path fill="#0ACF83" d="M8 24c2.208 0 4-1.792 4-4v-4H8c-2.208 0-4 1.792-4 4s1.792 4 4 4Z"/><path fill="#A259FF" d="M4 12c0-2.208 1.792-4 4-4h4v8H8c-2.208 0-4-1.792-4-4Z"/><path fill="#F24E1E" d="M4 4c0-2.208 1.792-4 4-4h4v8H8C5.792 8 4 6.208 4 4Z"/><path fill="#FF7262" d="M12 0h4c2.208 0 4 1.792 4 4s-1.792 4-4 4h-4V0Z"/><path fill="#1ABCFE" d="M20 12c0 2.208-1.792 4-4 4s-4-1.792-4-4 1.792-4 4-4 4 1.792 4 4Z"/></g></symbol><symbol xmlns="http://www.w3.org/2000/svg" id="figma-color" fill="none" viewBox="0 0 24 24"><path fill="#98A2B3" fill-rule="evenodd" d="M8.25 2c-.737 0-1.438.286-1.953.789A2.626 2.626 0 0 0 5.5 4.667c0 .7.284 1.375.797 1.877a2.794 2.794 0 0 0 1.953.79H11V2H8.25ZM13 2v5.333h2.75c.364 0 .724-.07 1.06-.206a2.75 2.75 0 0 0 .893-.583c.254-.248.454-.542.59-.864a2.597 2.597 0 0 0 0-2.026 2.662 2.662 0 0 0-.59-.865 2.755 2.755 0 0 0-.893-.583A2.824 2.824 0 0 0 15.75 2H13Zm5.688 6.333a4.662 4.662 0 0 0 1.447-1.873 4.595 4.595 0 0 0 0-3.587 4.662 4.662 0 0 0-1.034-1.514A4.758 4.758 0 0 0 17.56.352 4.825 4.825 0 0 0 15.75 0h-7.5A4.794 4.794 0 0 0 4.9 1.359a4.626 4.626 0 0 0-1.4 3.308 4.626 4.626 0 0 0 1.812 3.666A4.626 4.626 0 0 0 3.5 12a4.626 4.626 0 0 0 1.812 3.667A4.626 4.626 0 0 0 3.5 19.334c0 1.244.506 2.434 1.4 3.307A4.794 4.794 0 0 0 8.25 24a4.794 4.794 0 0 0 3.35-1.359 4.626 4.626 0 0 0 1.4-3.308v-3.528a4.823 4.823 0 0 0 4.56.51 4.756 4.756 0 0 0 1.54-1.007 4.662 4.662 0 0 0 1.035-1.515 4.595 4.595 0 0 0 0-3.586 4.662 4.662 0 0 0-1.447-1.874ZM11 14.667V9.333H8.25c-.737 0-1.438.287-1.953.79A2.626 2.626 0 0 0 5.5 12c0 .7.284 1.376.797 1.878a2.794 2.794 0 0 0 1.953.789H11Zm0 2H8.25c-.737 0-1.438.286-1.953.789a2.626 2.626 0 0 0-.797 1.877c0 .7.284 1.376.797 1.878A2.794 2.794 0 0 0 8.25 22c.737 0 1.438-.286 1.953-.789A2.626 2.626 0 0 0 11 19.333v-2.666Zm4.75-7.334c-.364 0-.724.07-1.06.206a2.755 2.755 0 0 0-.893.583 2.662 2.662 0 0 0-.59.865 2.597 2.597 0 0 0 0 2.026c.136.322.336.616.59.865.255.248.558.447.893.583a2.824 2.824 0 0 0 2.12 0c.335-.136.638-.335.893-.583.254-.249.454-.543.59-.865a2.597 2.597 0 0 0 0-2.026 2.662 2.662 0 0 0-.59-.865 2.755 2.755 0 0 0-.893-.583 2.824 2.824 0 0 0-1.06-.206Z" clip-rule="evenodd"/></symbol><symbol xmlns="http://www.w3.org/2000/svg" id="figma-colorWithBrand" fill="none" viewBox="0 0 24 24"><g clip-path="url(#a)"><path fill="#0ACF83" d="M8 24c2.208 0 4-1.792 4-4v-4H8c-2.208 0-4 1.792-4 4s1.792 4 4 4Z"/><path fill="#A259FF" d="M4 12c0-2.208 1.792-4 4-4h4v8H8c-2.208 0-4-1.792-4-4Z"/><path fill="#F24E1E" d="M4 4c0-2.208 1.792-4 4-4h4v8H8C5.792 8 4 6.208 4 4Z"/><path fill="#FF7262" d="M12 0h4c2.208 0 4 1.792 4 4s-1.792 4-4 4h-4V0Z"/><path fill="#1ABCFE" d="M20 12c0 2.208-1.792 4-4 4s-4-1.792-4-4 1.792-4 4-4 4 1.792 4 4Z"/></g></symbol><symbol xmlns="http://www.w3.org/2000/svg" id="google-brand" fill="none" viewBox="0 0 24 24"><g clip-path="url(#a)"><path fill="#4285F4" d="M23.766 12.276c0-.815-.066-1.635-.207-2.438H12.24v4.621h6.482a5.555 5.555 0 0 1-2.399 3.647v2.998h3.867c2.271-2.09 3.576-5.177 3.576-8.828Z"/><path fill="#34A853" d="M12.24 24c3.237 0 5.966-1.062 7.955-2.896l-3.867-2.998c-1.076.731-2.465 1.146-4.083 1.146-3.131 0-5.786-2.112-6.738-4.952h-3.99v3.091a12.002 12.002 0 0 0 10.723 6.61Z"/><path fill="#FBBC04" d="M5.503 14.3a7.188 7.188 0 0 1 0-4.594V6.615H1.517a12.01 12.01 0 0 0 0 10.776l3.986-3.09Z"/><path fill="#EA4335" d="M12.24 4.75a6.52 6.52 0 0 1 4.603 1.799l3.427-3.426A11.533 11.533 0 0 0 12.24 0 11.998 11.998 0 0 0 1.517 6.615l3.986 3.09C6.45 6.863 9.109 4.75 12.24 4.75Z"/></g></symbol><symbol xmlns="http://www.w3.org/2000/svg" id="google-color" fill="none" viewBox="0 0 24 24"><g clip-path="url(#a)"><path fill="#98A2B3" fill-rule="evenodd" d="M16.843 6.548a6.521 6.521 0 0 0-4.604-1.8c-3.13 0-5.79 2.113-6.737 4.957a7.188 7.188 0 0 0 0 4.594h.004c.953 2.84 3.607 4.952 6.738 4.952 1.616 0 3.003-.413 4.078-1.143v-.003a5.554 5.554 0 0 0 2.399-3.647h-6.482v-4.62h11.319c.141.802.207 1.622.207 2.438 0 3.65-1.304 6.735-3.574 8.825l.003.002C18.205 22.937 15.476 24 12.239 24a12.002 12.002 0 0 1-10.723-6.61 12.01 12.01 0 0 1 0-10.776A11.998 11.998 0 0 1 12.239 0a11.533 11.533 0 0 1 8.03 3.122l-3.426 3.426Z" clip-rule="evenodd"/></g></symbol><symbol xmlns="http://www.w3.org/2000/svg" id="google-colorWithBrand" fill="none" viewBox="0 0 24 24"><g clip-path="url(#a)"><path fill="#4285F4" d="M23.766 12.276c0-.815-.066-1.635-.207-2.438H12.24v4.621h6.482a5.555 5.555 0 0 1-2.399 3.647v2.998h3.867c2.271-2.09 3.576-5.177 3.576-8.828Z"/><path fill="#34A853" d="M12.24 24c3.237 0 5.966-1.062 7.955-2.896l-3.867-2.998c-1.076.731-2.465 1.146-4.083 1.146-3.131 0-5.786-2.112-6.738-4.952h-3.99v3.091a12.002 12.002 0 0 0 10.723 6.61Z"/><path fill="#FBBC04" d="M5.503 14.3a7.188 7.188 0 0 1 0-4.594V6.615H1.517a12.01 12.01 0 0 0 0 10.776l3.986-3.09Z"/><path fill="#EA4335" d="M12.24 4.75a6.52 6.52 0 0 1 4.603 1.799l3.427-3.426A11.533 11.533 0 0 0 12.24 0 11.998 11.998 0 0 0 1.517 6.615l3.986 3.09C6.45 6.863 9.109 4.75 12.24 4.75Z"/></g></symbol><symbol xmlns="http://www.w3.org/2000/svg" id="twitter-brand" fill="none" viewBox="0 0 24 24"><path fill="#fff" d="M7.55 21.75c9.055 0 14.008-7.503 14.008-14.008 0-.211-.004-.427-.014-.638A9.999 9.999 0 0 0 24 4.555c-.898.4-1.85.66-2.826.774a4.95 4.95 0 0 0 2.165-2.723A9.897 9.897 0 0 1 20.213 3.8a4.93 4.93 0 0 0-8.394 4.49A13.985 13.985 0 0 1 1.673 3.15a4.93 4.93 0 0 0 1.523 6.57 4.93 4.93 0 0 1-2.23-.614v.06a4.922 4.922 0 0 0 3.95 4.829 4.893 4.893 0 0 1-2.221.084 4.933 4.933 0 0 0 4.597 3.422A9.875 9.875 0 0 1 0 19.538a13.969 13.969 0 0 0 7.55 2.212Z"/></symbol><symbol xmlns="http://www.w3.org/2000/svg" id="twitter-color" fill="none" viewBox="0 0 24 24"><path fill="#98A2B3" d="M7.55 21.75c9.055 0 14.008-7.503 14.008-14.008 0-.211-.004-.427-.014-.638A9.999 9.999 0 0 0 24 4.555c-.898.4-1.85.66-2.826.774a4.95 4.95 0 0 0 2.165-2.723A9.897 9.897 0 0 1 20.213 3.8a4.93 4.93 0 0 0-8.394 4.49A13.985 13.985 0 0 1 1.673 3.15a4.93 4.93 0 0 0 1.523 6.57 4.93 4.93 0 0 1-2.23-.614v.06a4.922 4.922 0 0 0 3.95 4.829 4.893 4.893 0 0 1-2.221.084 4.933 4.933 0 0 0 4.597 3.422A9.875 9.875 0 0 1 0 19.538a13.969 13.969 0 0 0 7.55 2.212Z"/></symbol><symbol xmlns="http://www.w3.org/2000/svg" id="twitter-colorWithBrand" fill="none" viewBox="0 0 24 24"><path fill="#1DA1F2" d="M7.548 21.75c9.056 0 14.01-7.503 14.01-14.01 0-.213 0-.425-.015-.636A10.02 10.02 0 0 0 24 4.555a9.815 9.815 0 0 1-2.828.775 4.94 4.94 0 0 0 2.165-2.724 9.864 9.864 0 0 1-3.127 1.196 4.929 4.929 0 0 0-8.391 4.49A13.98 13.98 0 0 1 1.67 3.148 4.928 4.928 0 0 0 3.195 9.72 4.88 4.88 0 0 1 .96 9.105v.062a4.926 4.926 0 0 0 3.95 4.827 4.917 4.917 0 0 1-2.223.084 4.93 4.93 0 0 0 4.6 3.42A9.878 9.878 0 0 1 0 19.538a13.941 13.941 0 0 0 7.548 2.209"/></symbol></svg>