<svg width="0" height="0"><symbol xmlns="http://www.w3.org/2000/svg" id="user-01" fill="none" viewBox="0 0 24 24"><path id="Icon" stroke="currentColor" stroke-linecap="round" stroke-linejoin="round" stroke-width="2" d="M20 21c0-1.396 0-2.093-.172-2.661a4 4 0 0 0-2.667-2.667c-.568-.172-1.265-.172-2.661-.172h-5c-1.396 0-2.093 0-2.661.172a4 4 0 0 0-2.667 2.667C4 18.907 4 19.604 4 21M16.5 7.5a4.5 4.5 0 1 1-9 0 4.5 4.5 0 0 1 9 0Z"/></symbol><symbol xmlns="http://www.w3.org/2000/svg" id="user-circle" fill="none" viewBox="0 0 24 24"><path stroke="currentColor" stroke-linecap="round" stroke-linejoin="round" stroke-width="2" d="M5.316 19.438A4.001 4.001 0 0 1 9 17h6a4.001 4.001 0 0 1 3.684 2.438M16 9.5a4 4 0 1 1-8 0 4 4 0 0 1 8 0Zm6 2.5c0 5.523-4.477 10-10 10S2 17.523 2 12 6.477 2 12 2s10 4.477 10 10Z"/></symbol><symbol xmlns="http://www.w3.org/2000/svg" id="user-plus-01" fill="none" viewBox="0 0 24 24"><path stroke="currentColor" stroke-linecap="round" stroke-linejoin="round" stroke-width="2" d="M12 15.5H7.5c-1.396 0-2.093 0-2.661.172a4 4 0 0 0-2.667 2.667C2 18.907 2 19.604 2 21m17 0v-6m-3 3h6M14.5 7.5a4.5 4.5 0 1 1-9 0 4.5 4.5 0 0 1 9 0Z"/></symbol><symbol xmlns="http://www.w3.org/2000/svg" id="user" fill="none" viewBox="0 0 24 24"><path stroke="currentColor" stroke-linecap="round" stroke-linejoin="round" stroke-width="2" d="M20 21c0-1.396 0-2.093-.172-2.661a4 4 0 0 0-2.667-2.667c-.568-.172-1.265-.172-2.661-.172h-5c-1.396 0-2.093 0-2.661.172a4 4 0 0 0-2.667 2.667C4 18.907 4 19.604 4 21M16.5 7.5a4.5 4.5 0 1 1-9 0 4.5 4.5 0 0 1 9 0Z"/></symbol><symbol xmlns="http://www.w3.org/2000/svg" id="users-01" fill="none" viewBox="0 0 16 16"><path stroke="currentColor" stroke-linecap="round" stroke-linejoin="round" stroke-width="1.5" d="M14.667 14v-1.333c0-1.243-.85-2.287-2-2.583m-2.334-7.89a2.668 2.668 0 0 1 0 4.945m1 6.861c0-1.242 0-1.864-.203-2.354a2.667 2.667 0 0 0-1.443-1.443C9.197 10 8.576 10 7.333 10h-2c-1.242 0-1.864 0-2.354.203-.653.27-1.172.79-1.443 1.443-.203.49-.203 1.111-.203 2.354M9 4.667a2.667 2.667 0 1 1-5.333 0 2.667 2.667 0 0 1 5.333 0Z"/></symbol><symbol xmlns="http://www.w3.org/2000/svg" id="users-plus" fill="none" viewBox="0 0 24 24"><path stroke="currentColor" stroke-linecap="round" stroke-linejoin="round" stroke-width="2" d="M19 21v-6m-3 3h6m-10-3H8c-1.864 0-2.796 0-3.53.305a4 4 0 0 0-2.166 2.164C2 18.204 2 19.136 2 21M15.5 3.29a4.001 4.001 0 0 1 0 7.42M13.5 7a4 4 0 1 1-8 0 4 4 0 0 1 8 0Z"/></symbol></svg>