<svg width="0" height="0" class="hidden"><symbol viewBox="0 0 24 24" fill="none" xmlns="http://www.w3.org/2000/svg" id="dribbble-color"><path fill-rule="evenodd" clip-rule="evenodd" d="M12 0C5.37527 0 0 5.37527 0 12C0 18.6248 5.37527 24 12 24C18.6117 24 24 18.6248 24 12C24 5.37527 18.6117 0 12 0ZM19.9262 5.53145C21.3579 7.27549 22.217 9.50107 22.243 11.9089C21.9046 11.8439 18.5206 11.154 15.1106 11.5835C15.0325 11.4143 14.9675 11.2321 14.8894 11.0499C14.6811 10.5554 14.4469 10.0477 14.2126 9.56618C17.9869 8.0304 19.705 5.81779 19.9262 5.53145ZM12 1.77007C14.603 1.77007 16.9848 2.74621 18.7939 4.34707C18.6117 4.60738 17.0629 6.67679 13.4186 8.04338C11.7397 4.95878 9.87855 2.43384 9.5922 2.04338C10.3601 1.86117 11.1671 1.77007 12 1.77007ZM7.63995 2.73319C7.91325 3.09761 9.73538 5.63558 11.4404 8.65508C6.65076 9.9306 2.42083 9.90458 1.96529 9.90458C2.62907 6.72885 4.77657 4.08676 7.63995 2.73319ZM1.74404 12.0131C1.74404 11.9089 1.74404 11.8048 1.74404 11.7007C2.18655 11.7136 7.15835 11.7787 12.2733 10.243C12.5727 10.8156 12.846 11.4013 13.1063 11.9869C12.9761 12.026 12.8329 12.0651 12.7028 12.1041C7.41865 13.8091 4.60738 18.4685 4.3731 18.859C2.7462 17.0499 1.74404 14.6421 1.74404 12.0131ZM12 22.256C9.6312 22.256 7.44469 21.449 5.71367 20.0954C5.89588 19.718 7.97827 15.7094 13.757 13.692C13.783 13.679 13.7961 13.679 13.8221 13.666C15.2668 17.4013 15.8525 20.5379 16.0087 21.436C14.7722 21.9696 13.4186 22.256 12 22.256ZM17.7136 20.4989C17.6096 19.8742 17.0629 16.8807 15.7223 13.1974C18.9371 12.6898 21.7484 13.5228 22.0998 13.6399C21.6573 16.4902 20.0173 18.9501 17.7136 20.4989Z" fill="currentColor"></path></symbol><symbol viewBox="0 0 24 24" fill="none" xmlns="http://www.w3.org/2000/svg" id="dribbble-brand"><path fill-rule="evenodd" clip-rule="evenodd" d="M12 0C5.37527 0 0 5.37527 0 12C0 18.6248 5.37527 24 12 24C18.6117 24 24 18.6248 24 12C24 5.37527 18.6117 0 12 0ZM19.9262 5.53145C21.3579 7.27549 22.217 9.50107 22.243 11.9089C21.9046 11.8439 18.5206 11.154 15.1106 11.5835C15.0325 11.4143 14.9675 11.2321 14.8894 11.0499C14.6811 10.5554 14.4469 10.0477 14.2126 9.56618C17.9869 8.0304 19.705 5.81779 19.9262 5.53145ZM12 1.77007C14.603 1.77007 16.9848 2.74621 18.7939 4.34707C18.6117 4.60738 17.0629 6.67679 13.4186 8.04338C11.7397 4.95878 9.87855 2.43384 9.5922 2.04338C10.3601 1.86117 11.1671 1.77007 12 1.77007ZM7.63995 2.73319C7.91325 3.09761 9.73538 5.63558 11.4404 8.65508C6.65076 9.9306 2.42083 9.90458 1.96529 9.90458C2.62907 6.72885 4.77657 4.08676 7.63995 2.73319ZM1.74404 12.0131C1.74404 11.9089 1.74404 11.8048 1.74404 11.7007C2.18655 11.7136 7.15835 11.7787 12.2733 10.243C12.5727 10.8156 12.846 11.4013 13.1063 11.9869C12.9761 12.026 12.8329 12.0651 12.7028 12.1041C7.41865 13.8091 4.60738 18.4685 4.3731 18.859C2.7462 17.0499 1.74404 14.6421 1.74404 12.0131ZM12 22.256C9.6312 22.256 7.44469 21.449 5.71367 20.0954C5.89588 19.718 7.97827 15.7094 13.757 13.692C13.783 13.679 13.7961 13.679 13.8221 13.666C15.2668 17.4013 15.8525 20.5379 16.0087 21.436C14.7722 21.9696 13.4186 22.256 12 22.256ZM17.7136 20.4989C17.6096 19.8742 17.0629 16.8807 15.7223 13.1974C18.9371 12.6898 21.7484 13.5228 22.0998 13.6399C21.6573 16.4902 20.0173 18.9501 17.7136 20.4989Z" fill="currentColor"></path></symbol><symbol viewBox="0 0 24 24" fill="none" xmlns="http://www.w3.org/2000/svg" id="dribbble-colorWithBrand"><path d="M12 23.625C18.4203 23.625 23.625 18.4203 23.625 12C23.625 5.57969 18.4203 0.375 12 0.375C5.57969 0.375 0.375 5.57969 0.375 12C0.375 18.4203 5.57969 23.625 12 23.625Z" fill="currentColor"></path><path fill-rule="evenodd" clip-rule="evenodd" d="M12 0C5.37527 0 0 5.37527 0 12C0 18.6248 5.37527 24 12 24C18.6117 24 24 18.6248 24 12C24 5.37527 18.6117 0 12 0ZM19.9262 5.53145C21.3579 7.27549 22.217 9.50107 22.243 11.9089C21.9046 11.8439 18.5206 11.154 15.1106 11.5835C15.0325 11.4143 14.9675 11.2321 14.8894 11.0499C14.6811 10.5554 14.4469 10.0477 14.2126 9.56618C17.9869 8.0304 19.705 5.81779 19.9262 5.53145ZM12 1.77007C14.603 1.77007 16.9848 2.74621 18.7939 4.34707C18.6117 4.60738 17.0629 6.67679 13.4186 8.04338C11.7397 4.95878 9.87855 2.43384 9.5922 2.04338C10.3601 1.86117 11.1671 1.77007 12 1.77007ZM7.63995 2.73319C7.91325 3.09761 9.73538 5.63558 11.4404 8.65508C6.65076 9.9306 2.42083 9.90458 1.96529 9.90458C2.62907 6.72885 4.77657 4.08676 7.63995 2.73319ZM1.74404 12.0131C1.74404 11.9089 1.74404 11.8048 1.74404 11.7007C2.18655 11.7136 7.15835 11.7787 12.2733 10.243C12.5727 10.8156 12.846 11.4013 13.1063 11.9869C12.9761 12.026 12.8329 12.0651 12.7028 12.1041C7.41865 13.8091 4.60738 18.4685 4.3731 18.859C2.7462 17.0499 1.74404 14.6421 1.74404 12.0131ZM12 22.256C9.6312 22.256 7.44469 21.449 5.71367 20.0954C5.89588 19.718 7.97827 15.7094 13.757 13.692C13.783 13.679 13.7961 13.679 13.8221 13.666C15.2668 17.4013 15.8525 20.5379 16.0087 21.436C14.7722 21.9696 13.4186 22.256 12 22.256ZM17.7136 20.4989C17.6096 19.8742 17.0629 16.8807 15.7223 13.1974C18.9371 12.6898 21.7484 13.5228 22.0998 13.6399C21.6573 16.4902 20.0173 18.9501 17.7136 20.4989Z" fill="currentColor"></path></symbol><symbol viewBox="0 0 24 24" fill="none" xmlns="http://www.w3.org/2000/svg" id="facebook-color"><g clip-path="url(#clip0_1422_1140)"><path d="M24 12C24 5.37258 18.6274 0 12 0C5.37258 0 0 5.37258 0 12C0 17.9895 4.3882 22.954 10.125 23.8542V15.4688H7.07812V12H10.125V9.35625C10.125 6.34875 11.9166 4.6875 14.6576 4.6875C15.9701 4.6875 17.3438 4.92188 17.3438 4.92188V7.875H15.8306C14.34 7.875 13.875 8.80008 13.875 9.75V12H17.2031L16.6711 15.4688H13.875V23.8542C19.6118 22.954 24 17.9895 24 12Z" fill="currentColor"></path></g><defs><clipPath id="clip0_1422_1140"><rect width="24" height="24" fill="currentColor"></rect></clipPath></defs></symbol><symbol viewBox="0 0 24 24" fill="none" xmlns="http://www.w3.org/2000/svg" id="facebook-colorWithBrand"><g clip-path="url(#clip0_1027_1516)"><path d="M24 12C24 5.37258 18.6274 0 12 0C5.37258 0 0 5.37258 0 12C0 17.9895 4.3882 22.954 10.125 23.8542V15.4688H7.07812V12H10.125V9.35625C10.125 6.34875 11.9166 4.6875 14.6576 4.6875C15.9701 4.6875 17.3438 4.92188 17.3438 4.92188V7.875H15.8306C14.34 7.875 13.875 8.80008 13.875 9.75V12H17.2031L16.6711 15.4688H13.875V23.8542C19.6118 22.954 24 17.9895 24 12Z" fill="currentColor"></path><path d="M16.6711 15.4688L17.2031 12H13.875V9.75C13.875 8.80102 14.34 7.875 15.8306 7.875H17.3438V4.92188C17.3438 4.92188 15.9705 4.6875 14.6576 4.6875C11.9166 4.6875 10.125 6.34875 10.125 9.35625V12H7.07812V15.4688H10.125V23.8542C11.3674 24.0486 12.6326 24.0486 13.875 23.8542V15.4688H16.6711Z" fill="currentColor"></path></g><defs><clipPath id="clip0_1027_1516"><rect width="24" height="24" fill="currentColor"></rect></clipPath></defs></symbol><symbol viewBox="0 0 24 24" fill="none" xmlns="http://www.w3.org/2000/svg" id="facebook-brand"><g clip-path="url(#clip0_1027_1579)"><path d="M24 12C24 5.37258 18.6274 0 12 0C5.37258 0 0 5.37258 0 12C0 17.9895 4.3882 22.954 10.125 23.8542V15.4688H7.07812V12H10.125V9.35625C10.125 6.34875 11.9166 4.6875 14.6576 4.6875C15.9701 4.6875 17.3438 4.92188 17.3438 4.92188V7.875H15.8306C14.34 7.875 13.875 8.80008 13.875 9.75V12H17.2031L16.6711 15.4688H13.875V23.8542C19.6118 22.954 24 17.9895 24 12Z" fill="currentColor"></path></g><defs><clipPath id="clip0_1027_1579"><rect width="24" height="24" fill="currentColor"></rect></clipPath></defs></symbol><symbol viewBox="0 0 24 24" fill="none" xmlns="http://www.w3.org/2000/svg" id="figma-brand"><g clip-path="url(#clip0_1027_1544)"><path d="M8.00006 24C10.2081 24 12.0001 22.208 12.0001 20V15.9999H8.00006C5.79205 15.9999 4 17.792 4 20C4 22.208 5.79205 24 8.00006 24Z" fill="currentColor"></path><path d="M4 12C4 9.79197 5.79205 7.99994 8.00006 7.99994H12.0001V15.9999H8.00006C5.79205 16 4 14.208 4 12Z" fill="currentColor"></path><path d="M4 4.00003C4 1.79203 5.79205 0 8.00006 0H12.0001V7.99997H8.00006C5.79205 7.99997 4 6.20803 4 4.00003Z" fill="currentColor"></path><path d="M12 0H16.0001C18.2081 0 20.0001 1.79203 20.0001 4.00003C20.0001 6.20803 18.2081 7.99997 16.0001 7.99997H12V0Z" fill="currentColor"></path><path d="M20.0001 12C20.0001 14.208 18.2081 16 16.0001 16C13.792 16 12 14.208 12 12C12 9.79197 13.792 7.99994 16.0001 7.99994C18.2081 7.99994 20.0001 9.79197 20.0001 12Z" fill="currentColor"></path></g><defs><clipPath id="clip0_1027_1544"><rect width="24" height="24" fill="currentColor"></rect></clipPath></defs></symbol><symbol viewBox="0 0 24 24" fill="none" xmlns="http://www.w3.org/2000/svg" id="figma-color"><path fill-rule="evenodd" clip-rule="evenodd" d="M8.25 2C7.51349 2 6.81155 2.28629 6.29747 2.78895C5.78414 3.29087 5.5 3.96677 5.5 4.66667C5.5 5.36657 5.78414 6.04247 6.29747 6.54438C6.81155 7.04705 7.51349 7.33333 8.25 7.33333H11V2H8.25ZM13 2V7.33333H15.75C16.1142 7.33333 16.4744 7.26316 16.8097 7.12736C17.145 6.99157 17.4482 6.79311 17.7025 6.54438C17.9569 6.29571 18.1574 6.00171 18.2938 5.67977C18.4301 5.35788 18.5 5.0137 18.5 4.66667C18.5 4.31964 18.4301 3.97545 18.2938 3.65356C18.1574 3.33162 17.9569 3.03763 17.7025 2.78895C17.4482 2.54022 17.145 2.34177 16.8097 2.20598C16.4744 2.07017 16.1142 2 15.75 2H13ZM18.6884 8.33334C18.8324 8.22191 18.9702 8.10211 19.1008 7.9744C19.5429 7.54211 19.8948 7.02769 20.1353 6.45991C20.3759 5.89208 20.5 5.28266 20.5 4.66667C20.5 4.05067 20.3759 3.44126 20.1353 2.87342C19.8948 2.30564 19.5429 1.79122 19.1008 1.35894C18.6587 0.926696 18.1351 0.584984 17.5605 0.352241C16.9858 0.119512 16.3707 0 15.75 0H8.25C6.99738 0 5.79167 0.486331 4.89923 1.35894C4.00603 2.23228 3.5 3.42165 3.5 4.66667C3.5 5.91169 4.00603 7.10105 4.89923 7.9744C5.03021 8.10247 5.16794 8.22222 5.31158 8.33333C5.16794 8.44445 5.03021 8.5642 4.89923 8.69227C4.00603 9.56562 3.5 10.755 3.5 12C3.5 13.245 4.00603 14.4344 4.89923 15.3077C5.03022 15.4358 5.16795 15.5556 5.31159 15.6667C5.16795 15.7778 5.03022 15.8975 4.89923 16.0256C4.00603 16.899 3.5 18.0883 3.5 19.3333C3.5 20.5784 4.00603 21.7677 4.89923 22.6411C5.79167 23.5137 6.99738 24 8.25 24C9.5026 24 10.7083 23.5137 11.6008 22.6411C12.494 21.7677 13 20.5784 13 19.3333V15.8051C13.2922 16.0089 13.6073 16.1799 13.9395 16.3144C14.5142 16.5472 15.1293 16.6667 15.75 16.6667C16.3707 16.6667 16.9858 16.5472 17.5605 16.3144C18.1351 16.0817 18.6587 15.74 19.1008 15.3077C19.5429 14.8754 19.8948 14.361 20.1353 13.7932C20.3759 13.2254 20.5 12.616 20.5 12C20.5 11.384 20.3759 10.7746 20.1353 10.2068C19.8948 9.63898 19.5429 9.12456 19.1008 8.69227C18.9702 8.56456 18.8324 8.44476 18.6884 8.33334ZM11 14.6667V9.33333H8.25C7.51349 9.33333 6.81155 9.61962 6.29747 10.1223C5.78414 10.6242 5.5 11.3001 5.5 12C5.5 12.6999 5.78414 13.3758 6.29747 13.8777C6.81155 14.3804 7.51349 14.6667 8.25 14.6667H11ZM11 16.6667H8.25C7.51349 16.6667 6.81155 16.953 6.29747 17.4556C5.78414 17.9575 5.5 18.6334 5.5 19.3333C5.5 20.0332 5.78414 20.7091 6.29747 21.2111C6.81155 21.7137 7.51349 22 8.25 22C8.98651 22 9.6884 21.7137 10.2025 21.2111C10.7159 20.7091 11 20.0332 11 19.3333V16.6667ZM15.75 9.33333C15.3858 9.33333 15.0256 9.4035 14.6903 9.53931C14.355 9.6751 14.0518 9.87356 13.7975 10.1223C13.5431 10.371 13.3426 10.665 13.2062 10.9869C13.0699 11.3088 13 11.653 13 12C13 12.347 13.0699 12.6912 13.2062 13.0131C13.3426 13.335 13.5431 13.629 13.7975 13.8777C14.0518 14.1264 14.355 14.3249 14.6903 14.4607C15.0256 14.5965 15.3858 14.6667 15.75 14.6667C16.1142 14.6667 16.4744 14.5965 16.8097 14.4607C17.145 14.3249 17.4482 14.1264 17.7025 13.8777C17.9569 13.629 18.1574 13.335 18.2938 13.0131C18.4301 12.6912 18.5 12.347 18.5 12C18.5 11.653 18.4301 11.3088 18.2938 10.9869C18.1574 10.665 17.9569 10.371 17.7025 10.1223C17.4482 9.87356 17.145 9.6751 16.8097 9.53931C16.4744 9.4035 16.1142 9.33333 15.75 9.33333Z" fill="currentColor"></path></symbol><symbol viewBox="0 0 24 24" fill="none" xmlns="http://www.w3.org/2000/svg" id="google-brand"><g clip-path="url(#clip0_1027_1528)"><path d="M23.7663 12.2764C23.7663 11.4607 23.7001 10.6406 23.559 9.83807H12.2402V14.4591H18.722C18.453 15.9494 17.5888 17.2678 16.3233 18.1056V21.1039H20.1903C22.4611 19.0139 23.7663 15.9274 23.7663 12.2764Z" fill="currentColor"></path><path d="M12.2401 24.0008C15.4766 24.0008 18.2059 22.9382 20.1945 21.1039L16.3276 18.1055C15.2517 18.8375 13.8627 19.252 12.2445 19.252C9.11388 19.252 6.45946 17.1399 5.50705 14.3003H1.5166V17.3912C3.55371 21.4434 7.7029 24.0008 12.2401 24.0008V24.0008Z" fill="currentColor"></path><path d="M5.50277 14.3003C5.00011 12.8099 5.00011 11.1961 5.50277 9.70575V6.61481H1.51674C-0.185266 10.0056 -0.185266 14.0004 1.51674 17.3912L5.50277 14.3003V14.3003Z" fill="currentColor"></path><path d="M12.2401 4.74966C13.9509 4.7232 15.6044 5.36697 16.8434 6.54867L20.2695 3.12262C18.1001 1.0855 15.2208 -0.034466 12.2401 0.000808666C7.7029 0.000808666 3.55371 2.55822 1.5166 6.61481L5.50264 9.70575C6.45065 6.86173 9.10947 4.74966 12.2401 4.74966V4.74966Z" fill="currentColor"></path></g><defs><clipPath id="clip0_1027_1528"><rect width="24" height="24" fill="currentColor"></rect></clipPath></defs></symbol><symbol viewBox="0 0 24 24" fill="none" xmlns="http://www.w3.org/2000/svg" id="figma-colorWithBrand"><g clip-path="url(#clip0_1027_1544)"><path d="M8.00006 24C10.2081 24 12.0001 22.208 12.0001 20V15.9999H8.00006C5.79205 15.9999 4 17.792 4 20C4 22.208 5.79205 24 8.00006 24Z" fill="currentColor"></path><path d="M4 12C4 9.79197 5.79205 7.99994 8.00006 7.99994H12.0001V15.9999H8.00006C5.79205 16 4 14.208 4 12Z" fill="currentColor"></path><path d="M4 4.00003C4 1.79203 5.79205 0 8.00006 0H12.0001V7.99997H8.00006C5.79205 7.99997 4 6.20803 4 4.00003Z" fill="currentColor"></path><path d="M12 0H16.0001C18.2081 0 20.0001 1.79203 20.0001 4.00003C20.0001 6.20803 18.2081 7.99997 16.0001 7.99997H12V0Z" fill="currentColor"></path><path d="M20.0001 12C20.0001 14.208 18.2081 16 16.0001 16C13.792 16 12 14.208 12 12C12 9.79197 13.792 7.99994 16.0001 7.99994C18.2081 7.99994 20.0001 9.79197 20.0001 12Z" fill="currentColor"></path></g><defs><clipPath id="clip0_1027_1544"><rect width="24" height="24" fill="currentColor"></rect></clipPath></defs></symbol><symbol viewBox="0 0 24 24" fill="none" xmlns="http://www.w3.org/2000/svg" id="google-color"><g clip-path="url(#clip0_1422_1145)"><path fill-rule="evenodd" clip-rule="evenodd" d="M16.8426 6.54781C15.6036 5.36611 13.9501 4.72235 12.2392 4.74881C9.10863 4.74881 6.44981 6.86086 5.5018 9.70486V9.70493C4.99913 11.1953 4.99913 12.8091 5.50179 14.2994H5.50619C6.45861 17.139 9.11303 19.2511 12.2437 19.2511C13.8597 19.2511 15.247 18.8378 16.3223 18.1077V18.1047C17.5878 17.2669 18.452 15.9486 18.721 14.4582H12.2393V9.83722H23.558C23.6991 10.6397 23.7653 11.4599 23.7653 12.2756C23.7653 15.9254 22.4609 19.0112 20.1913 21.1012L20.1937 21.103C18.2051 22.9373 15.4757 24 12.2392 24C7.70204 24 3.55286 21.4426 1.51575 17.3904V17.3904C-0.186243 13.9996 -0.186239 10.0048 1.51576 6.61398H1.51579L1.51575 6.61395C3.55286 2.55737 7.70204 -4.58262e-05 12.2392 -4.58262e-05C15.22 -0.0353205 18.0992 1.08465 20.2686 3.12176L16.8426 6.54781Z" fill="currentColor"></path></g><defs><clipPath id="clip0_1422_1145"><rect width="24" height="24" fill="currentColor"></rect></clipPath></defs></symbol><symbol viewBox="0 0 24 24" fill="none" xmlns="http://www.w3.org/2000/svg" id="google-colorWithBrand"><g clip-path="url(#clip0_1027_1528)"><path d="M23.7663 12.2764C23.7663 11.4607 23.7001 10.6406 23.559 9.83807H12.2402V14.4591H18.722C18.453 15.9494 17.5888 17.2678 16.3233 18.1056V21.1039H20.1903C22.4611 19.0139 23.7663 15.9274 23.7663 12.2764Z" fill="currentColor"></path><path d="M12.2401 24.0008C15.4766 24.0008 18.2059 22.9382 20.1945 21.1039L16.3276 18.1055C15.2517 18.8375 13.8627 19.252 12.2445 19.252C9.11388 19.252 6.45946 17.1399 5.50705 14.3003H1.5166V17.3912C3.55371 21.4434 7.7029 24.0008 12.2401 24.0008Z" fill="currentColor"></path><path d="M5.50277 14.3003C5.00011 12.8099 5.00011 11.1961 5.50277 9.70575V6.61481H1.51674C-0.185266 10.0056 -0.185266 14.0004 1.51674 17.3912L5.50277 14.3003Z" fill="currentColor"></path><path d="M12.2401 4.74966C13.9509 4.7232 15.6044 5.36697 16.8434 6.54867L20.2695 3.12262C18.1001 1.0855 15.2208 -0.034466 12.2401 0.000808666C7.7029 0.000808666 3.55371 2.55822 1.5166 6.61481L5.50264 9.70575C6.45064 6.86173 9.10947 4.74966 12.2401 4.74966Z" fill="currentColor"></path></g><defs><clipPath id="clip0_1027_1528"><rect width="24" height="24" fill="currentColor"></rect></clipPath></defs></symbol><symbol viewBox="0 0 24 24" fill="none" xmlns="http://www.w3.org/2000/svg" id="twitter-brand"><path d="M7.55016 21.75C16.6045 21.75 21.5583 14.2468 21.5583 7.74192C21.5583 7.53098 21.5536 7.31536 21.5442 7.10442C22.5079 6.40752 23.3395 5.54432 24 4.55536C23.1025 4.95466 22.1496 5.21544 21.1739 5.3288C22.2013 4.71297 22.9705 3.74553 23.3391 2.60583C22.3726 3.17862 21.3156 3.58267 20.2134 3.80067C19.4708 3.01162 18.489 2.48918 17.4197 2.31411C16.3504 2.13905 15.2532 2.32111 14.2977 2.83216C13.3423 3.3432 12.5818 4.15477 12.1338 5.14137C11.6859 6.12798 11.5754 7.23468 11.8195 8.29036C9.86249 8.19215 7.94794 7.68377 6.19998 6.79816C4.45203 5.91255 2.90969 4.6695 1.67297 3.14958C1.0444 4.2333 0.852057 5.51571 1.13503 6.73615C1.418 7.9566 2.15506 9.02351 3.19641 9.72005C2.41463 9.69523 1.64998 9.48474 0.965625 9.10598V9.16692C0.964925 10.3042 1.3581 11.4066 2.07831 12.2868C2.79852 13.167 3.80132 13.7706 4.91625 13.995C4.19206 14.1932 3.43198 14.2221 2.69484 14.0794C3.00945 15.0575 3.62157 15.913 4.44577 16.5264C5.26997 17.1398 6.26512 17.4807 7.29234 17.5013C5.54842 18.8712 3.39417 19.6142 1.17656 19.6107C0.783287 19.6101 0.390399 19.586 0 19.5385C2.25286 20.9838 4.87353 21.7514 7.55016 21.75Z" fill="currentColor"></path></symbol><symbol viewBox="0 0 24 24" fill="none" xmlns="http://www.w3.org/2000/svg" id="twitter-color"><path d="M7.55016 21.75C16.6045 21.75 21.5583 14.2468 21.5583 7.74192C21.5583 7.53098 21.5536 7.31536 21.5442 7.10442C22.5079 6.40752 23.3395 5.54432 24 4.55536C23.1025 4.95466 22.1496 5.21544 21.1739 5.3288C22.2013 4.71297 22.9705 3.74553 23.3391 2.60583C22.3726 3.17862 21.3156 3.58267 20.2134 3.80067C19.4708 3.01162 18.489 2.48918 17.4197 2.31411C16.3504 2.13905 15.2532 2.32111 14.2977 2.83216C13.3423 3.3432 12.5818 4.15477 12.1338 5.14137C11.6859 6.12798 11.5754 7.23468 11.8195 8.29036C9.86249 8.19215 7.94794 7.68377 6.19998 6.79816C4.45203 5.91255 2.90969 4.6695 1.67297 3.14958C1.0444 4.2333 0.852057 5.51571 1.13503 6.73615C1.418 7.9566 2.15506 9.02351 3.19641 9.72005C2.41463 9.69523 1.64998 9.48474 0.965625 9.10598V9.16692C0.964925 10.3042 1.3581 11.4066 2.07831 12.2868C2.79852 13.167 3.80132 13.7706 4.91625 13.995C4.19206 14.1932 3.43198 14.2221 2.69484 14.0794C3.00945 15.0575 3.62157 15.913 4.44577 16.5264C5.26997 17.1398 6.26512 17.4807 7.29234 17.5013C5.54842 18.8712 3.39417 19.6142 1.17656 19.6107C0.783287 19.6101 0.390399 19.586 0 19.5385C2.25286 20.9838 4.87353 21.7514 7.55016 21.75Z" fill="currentColor"></path></symbol><symbol viewBox="0 0 24 24" fill="none" xmlns="http://www.w3.org/2000/svg" id="twitter-colorWithBrand"><path d="M7.54752 21.7507C16.6042 21.7507 21.5578 14.2473 21.5578 7.74046C21.5578 7.52734 21.5578 7.31518 21.5434 7.10398C22.507 6.40693 23.3389 5.54386 24 4.55518C23.1014 4.95358 22.148 5.21473 21.1718 5.3299C22.1998 4.71459 22.9692 3.74668 23.3366 2.60638C22.3701 3.17999 21.3126 3.58421 20.2099 3.80158C19.4675 3.01216 18.4856 2.48942 17.4162 2.31426C16.3468 2.13911 15.2494 2.32129 14.294 2.83263C13.3385 3.34397 12.5782 4.15595 12.1307 5.14293C11.6833 6.1299 11.5735 7.23684 11.8186 8.29246C9.8609 8.19426 7.94576 7.68549 6.19745 6.79918C4.44915 5.91288 2.90676 4.66884 1.6704 3.14782C1.04073 4.23181 0.847872 5.51505 1.1311 6.73624C1.41433 7.95744 2.15234 9.02477 3.19488 9.72094C2.41123 9.69798 1.64465 9.48657 0.96 9.10462V9.16702C0.960311 10.3039 1.35385 11.4056 2.07387 12.2854C2.79389 13.1652 3.79606 13.7688 4.9104 13.9939C4.18548 14.1916 3.42487 14.2205 2.68704 14.0784C3.00181 15.0567 3.61443 15.9122 4.43924 16.5253C5.26405 17.1384 6.25983 17.4785 7.28736 17.4979C6.26644 18.3004 5.09731 18.8937 3.84687 19.2439C2.59643 19.5941 1.28921 19.6943 0 19.5389C2.25183 20.9839 4.87192 21.7504 7.54752 21.7469" fill="currentColor"></path></symbol></svg>